<svg id="visual" viewBox="0 0 900 600" width="900" height="600" xmlns="http://www.w3.org/2000/svg" xmlns:xlink="http://www.w3.org/1999/xlink" version="1.1"><rect x="0" y="0" width="900" height="600" fill="#151515"></rect><defs><linearGradient id="grad1_0" x1="33.3%" y1="0%" x2="100%" y2="100%"><stop offset="20%" stop-color="#ffcc4a" stop-opacity="1"></stop><stop offset="80%" stop-color="#ffcc4a" stop-opacity="1"></stop></linearGradient></defs><defs><linearGradient id="grad1_1" x1="33.3%" y1="0%" x2="100%" y2="100%"><stop offset="20%" stop-color="#ffcc4a" stop-opacity="1"></stop><stop offset="80%" stop-color="#816932" stop-opacity="1"></stop></linearGradient></defs><defs><linearGradient id="grad1_2" x1="33.3%" y1="0%" x2="100%" y2="100%"><stop offset="20%" stop-color="#151515" stop-opacity="1"></stop><stop offset="80%" stop-color="#816932" stop-opacity="1"></stop></linearGradient></defs><defs><linearGradient id="grad2_0" x1="0%" y1="0%" x2="66.7%" y2="100%"><stop offset="20%" stop-color="#ffcc4a" stop-opacity="1"></stop><stop offset="80%" stop-color="#ffcc4a" stop-opacity="1"></stop></linearGradient></defs><defs><linearGradient id="grad2_1" x1="0%" y1="0%" x2="66.7%" y2="100%"><stop offset="20%" stop-color="#816932" stop-opacity="1"></stop><stop offset="80%" stop-color="#ffcc4a" stop-opacity="1"></stop></linearGradient></defs><defs><linearGradient id="grad2_2" x1="0%" y1="0%" x2="66.7%" y2="100%"><stop offset="20%" stop-color="#816932" stop-opacity="1"></stop><stop offset="80%" stop-color="#151515" stop-opacity="1"></stop></linearGradient></defs><g transform="translate(900, 0)"><path d="M0 189.3C-14.1 188.1 -28.2 186.9 -41.6 182.3C-55 177.7 -67.6 169.8 -77.2 160.4C-86.9 150.9 -93.5 140 -107.2 134.5C-121 129 -141.8 128.9 -148 118C-154.2 107.1 -145.9 85.3 -146.9 70.7C-147.8 56.1 -158.1 48.6 -166.7 38.1C-175.3 27.5 -182.3 13.7 -189.3 0L0 0Z" fill="#493d24"></path><path d="M0 126.2C-9.4 125.4 -18.8 124.6 -27.7 121.5C-36.7 118.5 -45.1 113.2 -51.5 106.9C-57.9 100.6 -62.3 93.3 -71.5 89.7C-80.6 86 -94.5 86 -98.7 78.7C-102.8 71.4 -97.3 56.9 -97.9 47.1C-98.5 37.4 -105.4 32.4 -111.1 25.4C-116.9 18.3 -121.5 9.2 -126.2 0L0 0Z" fill="#be993e"></path><path d="M0 63.1C-4.7 62.7 -9.4 62.3 -13.9 60.8C-18.3 59.2 -22.5 56.6 -25.7 53.5C-29 50.3 -31.2 46.7 -35.7 44.8C-40.3 43 -47.3 43 -49.3 39.3C-51.4 35.7 -48.6 28.4 -49 23.6C-49.3 18.7 -52.7 16.2 -55.6 12.7C-58.4 9.2 -60.8 4.6 -63.1 0L0 0Z" fill="#ffcc4a"></path></g><g transform="translate(0, 600)"><path d="M0 -189.3C15.5 -191.3 31 -193.3 42.1 -184.5C53.2 -175.8 59.8 -156.2 71.2 -147.8C82.5 -139.3 98.5 -142 107.9 -135.3C117.2 -128.5 120 -112.2 125.1 -99.8C130.2 -87.3 137.7 -78.6 142.4 -68.6C147 -58.5 148.7 -47.2 156 -35.6C163.3 -24 176.3 -12 189.3 0L0 0Z" fill="#493d24"></path><path d="M0 -126.2C10.3 -127.5 20.7 -128.9 28.1 -123C35.5 -117.2 39.9 -104.1 47.4 -98.5C55 -92.9 65.7 -94.7 71.9 -90.2C78.2 -85.7 80 -74.8 83.4 -66.5C86.8 -58.2 91.8 -52.4 94.9 -45.7C98 -39 99.1 -31.5 104 -23.7C108.9 -16 117.5 -8 126.2 0L0 0Z" fill="#be993e"></path><path d="M0 -63.1C5.2 -63.8 10.3 -64.4 14 -61.5C17.7 -58.6 19.9 -52.1 23.7 -49.3C27.5 -46.4 32.8 -47.3 36 -45.1C39.1 -42.8 40 -37.4 41.7 -33.3C43.4 -29.1 45.9 -26.2 47.5 -22.9C49 -19.5 49.6 -15.7 52 -11.9C54.4 -8 58.8 -4 63.1 0L0 0Z" fill="#ffcc4a"></path></g></svg>